<?xml version="1.0" encoding="UTF-8" standalone="no"?>
<!-- Created with Inkscape (http://www.inkscape.org/) -->

<svg
   xmlns:dc="http://purl.org/dc/elements/1.1/"
   xmlns:cc="http://creativecommons.org/ns#"
   xmlns:rdf="http://www.w3.org/1999/02/22-rdf-syntax-ns#"
   xmlns:svg="http://www.w3.org/2000/svg"
   xmlns="http://www.w3.org/2000/svg"
   version="1.1"
   width="128"
   height="128"
   id="svg3049">
  <defs
     id="defs3051" />
  <metadata
     id="metadata3054">
    <rdf:RDF>
      <cc:Work
         rdf:about="">
        <dc:format>image/svg+xml</dc:format>
        <dc:type
           rdf:resource="http://purl.org/dc/dcmitype/StillImage" />
        <dc:title></dc:title>
      </cc:Work>
    </rdf:RDF>
  </metadata>
  <g
     transform="translate(0,-924.36218)"
     id="layer1">
    <rect
       width="128"
       height="128"
       rx="2"
       ry="2"
       x="0"
       y="924.36218"
       id="rect3072"
       style="color:#000000;fill:#ffffff;fill-opacity:1;fill-rule:nonzero;stroke:none;stroke-width:2;marker:none;visibility:visible;display:inline;overflow:visible;enable-background:accumulate" />
    <path
       d="m 6.375,40.71875 0,10.65625 11.6875,0 0,30.96875 12.8125,0 0,-30.96875 11.65625,0 0,-10.65625 -36.15625,0 z m 38.15625,0 0,41.625 35.09375,0 0,-10.6875 -22.28125,0 0,-5.1875 22.28125,0 0,-9.90625 -22.28125,0 0,-5.1875 22.28125,0 0,-10.65625 -35.09375,0 z m 37.25,0 0,41.625 18.53125,0 c 14.51996,0 21.3125,-8.10155 21.3125,-20.875 0,-10.49245 -4.90619,-20.75 -18.78125,-20.75 l -21.0625,0 z m 12.8125,10.65625 4.09375,0 c 9.27207,0 10.09375,7.28732 10.09375,9.90625 0,3.91125 -1.16604,10.375 -9.15625,10.375 l -5.03125,0 0,-20.28125 z"
       transform="translate(0,924.36218)"
       id="path7"
       style="fill:#e62b1f;fill-opacity:0.94117647" />
  </g>
</svg>
