<?xml version="1.0" encoding="UTF-8" standalone="no"?>
<!-- Created with Inkscape (http://www.inkscape.org/) -->

<svg
   xmlns:dc="http://purl.org/dc/elements/1.1/"
   xmlns:cc="http://creativecommons.org/ns#"
   xmlns:rdf="http://www.w3.org/1999/02/22-rdf-syntax-ns#"
   xmlns:svg="http://www.w3.org/2000/svg"
   xmlns="http://www.w3.org/2000/svg"
   version="1.1"
   width="564.50201"
   height="80"
   viewBox="0 0 564.502 80"
   id="Layer_1"
   xml:space="preserve"
   style="overflow:visible"><metadata
   id="metadata3040"><rdf:RDF><cc:Work
       rdf:about=""><dc:format>image/svg+xml</dc:format><dc:type
         rdf:resource="http://purl.org/dc/dcmitype/StillImage" /><dc:title></dc:title></cc:Work></rdf:RDF></metadata><defs
   id="defs3038">
	

		
		
		
	</defs>
<path
   d="m 1.4679333,11.030463 0,12.726482 13.9273877,0 0,36.947346 15.29985,0 0,-36.947346 13.911791,0 0,-12.726482 -43.1390287,0 z m 45.5096487,0 0,49.673828 41.891334,0 0,-12.726482 -26.575888,0 0,-6.191683 26.560291,0 0,-11.837498 -26.560291,0 0,-6.191683 26.560291,0 0,-12.726482 -41.875737,0 z m 44.464703,0 0,49.673828 22.115385,0 c 17.32697,0 25.40617,-9.664266 25.40617,-24.907097 0,-12.520861 -5.85431,-24.766731 -22.4117,-24.766731 l -25.109855,0 z m 15.299845,12.726482 4.86601,0 c 11.06456,0 12.05585,8.696678 12.05585,11.821903 0,4.667375 -1.39804,12.398961 -10.93292,12.398961 l -5.98894,0 0,-24.220864 z"
   id="path2990"
   style="fill:#e62b1f;fill-opacity:0.94117647" />

<g
   id="text3818"
   style="font-size:42.80476379px;font-style:normal;font-variant:normal;font-weight:300;font-stretch:normal;text-align:center;line-height:125%;writing-mode:lr-tb;text-anchor:middle;color:#000000;fill:#888888;fill-opacity:1;fill-rule:nonzero;stroke:none;stroke-width:2;marker:none;visibility:visible;display:inline;overflow:visible;enable-background:accumulate;font-family:HelveticaNeueLT Pro 45 Lt;-inkscape-font-specification:HelveticaNeueLT Pro 45 Lt Light"><path
     d="m 153.76059,52.09758 2.91068,0 0,-30.562208 -2.91068,0 z"
     id="path3052"
     style="text-align:start;letter-spacing:-0.47px;text-anchor:start;marker:none" /><path
     d="m 181.52677,21.535372 -2.69666,0 0,12.670047 -0.0856,0 c -0.60285,-1.587304 -1.61231,-2.789388 -3.0284,-3.606256 -1.41612,-0.816825 -2.96064,-1.227031 -4.63355,-1.23062 -3.3539,0.09366 -5.84903,1.25472 -7.48539,3.483193 -1.63637,2.228511 -2.45144,4.962627 -2.44519,8.202357 -0.006,3.239751 0.80882,5.973867 2.44519,8.202356 1.63636,2.228495 4.13149,3.389559 7.48539,3.483194 1.66043,-0.01962 3.22992,-0.461929 4.70846,-1.32693 1.47851,-0.865001 2.53435,-2.034982 3.16751,-3.509946 l 0.0856,0 0,4.194813 2.48264,0 z m -17.67814,19.518721 c -0.0196,-2.396131 0.54397,-4.538123 1.69077,-6.425983 1.14679,-1.887824 2.9945,-2.884805 5.54315,-2.990944 2.81347,0.106139 4.81634,1.10312 6.00864,2.990945 1.19225,1.88786 1.77189,4.029852 1.73892,6.425982 0.033,2.396153 -0.54667,4.538144 -1.73892,6.425982 -1.1923,1.887847 -3.19517,2.884828 -6.00864,2.990945 -2.54865,-0.106117 -4.39636,-1.103098 -5.54315,-2.990944 -1.1468,-1.887838 -1.71039,-4.02983 -1.69077,-6.425983 z"
     id="path3054"
     style="text-align:start;letter-spacing:-0.47px;text-anchor:start;marker:none" /><path
     d="m 187.78672,39.513141 c 0.23096,-2.088474 0.94614,-3.904085 2.14556,-5.446837 1.1994,-1.542716 2.90978,-2.352428 5.13115,-2.429138 2.17587,0.07404 3.8702,0.878398 5.083,2.413087 1.21277,1.534726 1.8584,3.355687 1.93689,5.462888 z m 16.99327,2.268624 c 0.13017,-3.232597 -0.57966,-6.077291 -2.12951,-8.534091 -1.54989,-2.456762 -4.0789,-3.749804 -7.58705,-3.879131 -3.48676,0.123084 -6.02648,1.343003 -7.61915,3.65976 -1.59267,2.316794 -2.37742,4.992055 -2.35423,8.02579 -0.0232,3.239751 0.76156,5.973867 2.35423,8.202356 1.59267,2.228495 4.13238,3.389559 7.61915,3.483194 2.78226,-0.01694 4.94387,-0.710728 6.48484,-2.081355 1.54093,-1.370624 2.58963,-3.31643 3.14611,-5.837424 l -2.69666,0 c -0.41736,1.714849 -1.18784,3.079231 -2.31143,4.093152 -1.12363,1.013927 -2.66458,1.532927 -4.62286,1.557004 -2.55042,-0.115926 -4.40527,-1.071886 -5.56454,-2.867882 -1.15929,-1.795988 -1.73001,-3.736443 -1.71217,-5.821373 z"
     id="path3056"
     style="text-align:start;letter-spacing:-0.47px;text-anchor:start;marker:none" /><path
     d="m 210.41121,36.773672 c 0.091,-1.787059 0.66881,-3.092586 1.73357,-3.916586 1.06475,-0.823962 2.45589,-1.230601 4.17342,-1.21992 1.64527,-0.03832 3.00965,0.263088 4.09315,0.90424 1.08346,0.64119 1.64527,1.852191 1.68541,3.633007 -0.005,1.160187 -0.30499,1.932446 -0.89888,2.316778 -0.59393,0.38436 -1.45001,0.610865 -2.56826,0.679517 -3.04089,0.210467 -5.74469,0.709849 -8.1114,1.498147 -2.36671,0.788322 -3.61517,2.657437 -3.74536,5.607352 0.0517,2.216905 0.77225,3.850597 2.16161,4.901082 1.38935,1.050486 3.13718,1.571271 5.24352,1.562354 2.08758,-0.008 3.72306,-0.398614 4.90643,-1.171765 1.18334,-0.773151 2.23026,-1.880708 3.14076,-3.322677 l 0.0856,0 c -0.0393,1.153041 0.14623,2.078681 0.55645,2.776923 0.41019,0.698244 1.28054,1.056729 2.61106,1.075456 0.35133,8.92e-4 0.65452,-0.01159 0.90959,-0.03745 0.25502,-0.02586 0.53681,-0.07045 0.84538,-0.133764 l 0,-2.268623 c -0.14805,0.06332 -0.29073,0.107904 -0.42804,0.133763 -0.13735,0.02586 -0.28003,0.03835 -0.42804,0.03745 -1.063,-0.0071 -1.59091,-0.549318 -1.58376,-1.62656 l 0,-11.728355 c -0.0954,-2.899075 -0.964,-4.827046 -2.60571,-5.783919 -1.64173,-0.95683 -3.48409,-1.397356 -5.52709,-1.32158 -2.58253,-0.01514 -4.6728,0.571637 -6.27082,1.760324 -1.59802,1.188728 -2.48978,3.070328 -2.67526,5.644805 z m 11.68555,6.763065 c -0.0615,2.180346 -0.82667,3.876461 -2.29537,5.088351 -1.46873,1.211896 -3.27186,1.827207 -5.40938,1.845932 -1.32873,-0.01338 -2.47017,-0.403963 -3.42434,-1.171766 -0.95418,-0.767797 -1.45356,-1.83255 -1.49815,-3.194264 0.042,-1.395357 0.59054,-2.409446 1.64559,-3.04227 1.05503,-0.632807 2.36452,-1.073003 3.92847,-1.32059 1.56393,-0.247566 3.13025,-0.49118 4.69895,-0.730841 0.39147,-0.05706 0.81773,-0.156938 1.27878,-0.29963 0.46102,-0.142669 0.79097,-0.370958 0.98985,-0.684867 l 0.0856,0 z"
     id="path3058"
     style="text-align:start;letter-spacing:-0.47px;text-anchor:start;marker:none" /><path
     d="m 245.66295,36.474042 c -0.15251,-2.39345 -0.97114,-4.176957 -2.45589,-5.350526 -1.48479,-1.173528 -3.36282,-1.758518 -5.6341,-1.754973 -2.05016,-0.02227 -3.92106,0.450358 -5.61271,1.41789 -1.69166,0.967574 -2.58876,2.563813 -2.69131,4.788721 0.0375,1.819194 0.62601,3.156825 1.76567,4.012895 1.13966,0.856096 2.6057,1.487458 4.39813,1.894086 l 3.46715,0.770476 c 1.26895,0.26932 2.38007,0.693794 3.33337,1.273425 0.95327,0.579649 1.45444,1.496371 1.5035,2.750171 -0.091,1.523121 -0.77584,2.607493 -2.0546,3.25312 -1.27879,0.645632 -2.60572,0.959529 -3.98079,0.941693 -1.83078,-0.0027 -3.33785,-0.468169 -4.5212,-1.396488 -1.18336,-0.928312 -1.84504,-2.303396 -1.98504,-4.125256 l -2.69667,0 c 0.26039,2.702912 1.18425,4.680821 2.77158,5.933733 1.58731,1.252916 3.68828,1.871793 6.30292,1.856634 2.16695,0.02318 4.15734,-0.483331 5.97118,-1.51955 1.81381,-1.036218 2.77691,-2.74125 2.88929,-5.115103 -0.0696,-1.911021 -0.73304,-3.353878 -1.9904,-4.328576 -1.25739,-0.974676 -2.69133,-1.572151 -4.30182,-1.792426 l -3.59556,-0.81328 c -1.01482,-0.214008 -2.01358,-0.599246 -2.99629,-1.155714 -0.98272,-0.55644 -1.51064,-1.412524 -1.58376,-2.568253 0.0678,-1.413413 0.63849,-2.406827 1.71217,-2.980244 1.07367,-0.573378 2.24365,-0.849821 3.50995,-0.829331 1.58107,-0.0071 2.91335,0.381692 3.99684,1.166415 1.08347,0.784762 1.67738,2.008248 1.78173,3.670461 z"
     id="path3060"
     style="text-align:start;letter-spacing:-0.47px;text-anchor:start;marker:none" /><path
     d="m 266.11745,52.09758 2.95349,0 5.39333,-18.577028 0.0856,0 5.43614,18.577028 2.95349,0 7.1055,-22.086974 -2.86789,0 -5.65015,18.919462 -0.0856,0 -5.39333,-18.919462 -3.0391,0 -5.39333,18.919462 -0.0856,0 -5.65016,-18.919462 -2.86788,0 z"
     id="path3062"
     style="text-align:start;letter-spacing:-0.47px;text-anchor:start;marker:none" /><path
     d="m 301.78464,31.637166 c 2.57002,0.100789 4.50335,1.087069 5.79997,2.958842 1.29659,1.871808 1.94579,4.024501 1.94759,6.458085 -0.002,2.433606 -0.651,4.586299 -1.94759,6.458085 -1.29663,1.871795 -3.22995,2.858075 -5.79997,2.958842 -2.57004,-0.100767 -4.50337,-1.087047 -5.79997,-2.958842 -1.29662,-1.871787 -1.94581,-4.024479 -1.94759,-6.458085 0.002,-2.433584 0.65098,-4.586277 1.94759,-6.458086 1.2966,-1.871773 3.22993,-2.858053 5.79997,-2.958841 z m 0,-2.268623 c -3.3753,0.09098 -5.95603,1.246695 -7.74221,3.467141 -1.78619,2.220485 -2.68686,4.959952 -2.70202,8.218409 0.0152,3.258479 0.91583,5.997946 2.70202,8.218409 1.78618,2.220469 4.36691,3.376181 7.74221,3.467141 3.37528,-0.09096 5.95601,-1.246672 7.74221,-3.467141 1.78617,-2.220464 2.68684,-4.959931 2.70202,-8.218409 -0.0152,-3.258456 -0.91585,-5.997923 -2.70202,-8.218409 -1.7862,-2.220447 -4.36693,-3.37616 -7.74221,-3.467141 z"
     id="path3064"
     style="text-align:start;letter-spacing:-0.47px;text-anchor:start;marker:none" /><path
     d="m 315.8102,52.09758 2.69666,0 0,-11.771159 c 0.0374,-2.36581 0.79722,-4.290214 2.27933,-5.773217 1.48208,-1.482969 3.46178,-2.198155 5.93908,-2.145562 l 0,-2.696665 c -2.00378,-0.07132 -3.7213,0.370992 -5.15256,1.32693 -1.43127,0.955981 -2.49602,2.339983 -3.19426,4.152009 l -0.0856,0 0,-5.17931 -2.48264,0 z"
     id="path3066"
     style="text-align:start;letter-spacing:-0.47px;text-anchor:start;marker:none" /><path
     d="m 333.08071,23.375953 -2.69666,0 0,6.634653 -3.85238,0 0,2.268623 3.85238,0 0,15.109888 c -0.0437,1.854852 0.30052,3.153245 1.03265,3.895183 0.73212,0.74194 1.98593,1.098641 3.76142,1.070105 0.40485,-0.0036 0.80435,-0.01783 1.19852,-0.0428 0.39414,-0.02497 0.79365,-0.03924 1.19852,-0.0428 l 0,-2.311428 c -0.77049,0.08561 -1.54096,0.128415 -2.31143,0.128413 -0.93368,-0.06777 -1.53828,-0.349566 -1.81383,-0.845384 -0.27556,-0.495812 -0.39862,-1.184246 -0.36919,-2.065303 l 0,-14.895866 4.49445,0 0,-2.268623 -4.49445,0 z"
     id="path3068"
     style="text-align:start;letter-spacing:-0.47px;text-anchor:start;marker:none" /><path
     d="m 340.99514,52.09758 2.69667,0 0,-12.884068 c 0.0749,-2.207078 0.70626,-4.010204 1.89409,-5.409383 1.18781,-1.399143 2.86787,-2.121463 5.04019,-2.166963 2.14377,0.04283 3.62408,0.684887 4.44094,1.92619 0.81683,1.241339 1.20563,2.825094 1.16641,4.751267 l 0,13.782957 2.69667,0 0,-14.210999 c 0.0508,-2.658304 -0.5217,-4.73609 -1.71752,-6.233364 -1.19586,-1.497233 -3.32002,-2.258791 -6.37248,-2.284674 -1.59714,0.01964 -3.03643,0.429849 -4.31787,1.230622 -1.28146,0.800816 -2.1964,1.874487 -2.74482,3.221016 l -0.0856,0 0,-12.284809 -2.69667,0 z"
     id="path3070"
     style="text-align:start;letter-spacing:-0.47px;text-anchor:start;marker:none" /><path
     d="m 390.8836,36.474042 c -0.15251,-2.39345 -0.97114,-4.176957 -2.45589,-5.350526 -1.48479,-1.173528 -3.36282,-1.758518 -5.6341,-1.754973 -2.05016,-0.02227 -3.92106,0.450358 -5.61271,1.41789 -1.69166,0.967574 -2.58876,2.563813 -2.69131,4.788721 0.0374,1.819194 0.62601,3.156825 1.76567,4.012895 1.13966,0.856096 2.6057,1.487458 4.39813,1.894086 l 3.46715,0.770476 c 1.26895,0.26932 2.38007,0.693794 3.33337,1.273425 0.95327,0.579649 1.45444,1.496371 1.5035,2.750171 -0.091,1.523121 -0.77584,2.607493 -2.0546,3.25312 -1.27879,0.645632 -2.60572,0.959529 -3.98079,0.941693 -1.83078,-0.0027 -3.33785,-0.468169 -4.5212,-1.396488 -1.18336,-0.928312 -1.84504,-2.303396 -1.98504,-4.125256 l -2.69667,0 c 0.26039,2.702912 1.18425,4.680821 2.77158,5.933733 1.58731,1.252916 3.68828,1.871793 6.30292,1.856634 2.16695,0.02318 4.15734,-0.483331 5.97118,-1.51955 1.81381,-1.036218 2.77691,-2.74125 2.88929,-5.115103 -0.0696,-1.911021 -0.73304,-3.353878 -1.9904,-4.328576 -1.25739,-0.974676 -2.69133,-1.572151 -4.30182,-1.792426 l -3.59556,-0.81328 c -1.01482,-0.214008 -2.01358,-0.599246 -2.99629,-1.155714 -0.98272,-0.55644 -1.51064,-1.412524 -1.58376,-2.568253 0.0678,-1.413413 0.63849,-2.406827 1.71217,-2.980244 1.07367,-0.573378 2.24365,-0.849821 3.50995,-0.829331 1.58107,-0.0071 2.91335,0.381692 3.99684,1.166415 1.08347,0.784762 1.67737,2.008248 1.78173,3.670461 z"
     id="path3072"
     style="text-align:start;letter-spacing:-0.47px;text-anchor:start;marker:none" /><path
     d="m 395.05678,60.273185 2.69666,0 0,-12.370418 0.0856,0 c 0.62155,1.606052 1.63636,2.813486 3.04445,3.622306 1.40807,0.80882 2.94724,1.213677 4.61751,1.21457 3.35387,-0.09363 5.84899,-1.254698 7.48538,-3.483193 1.63635,-2.22849 2.45141,-4.962606 2.44519,-8.202357 0.006,-3.23973 -0.80884,-5.973847 -2.44519,-8.202358 -1.63639,-2.228473 -4.13151,-3.389536 -7.48538,-3.483192 -1.82365,0.01162 -3.43059,0.437874 -4.82083,1.278776 -1.39025,0.840945 -2.40863,2.026977 -3.05515,3.5581 l -0.0856,0 0,-4.194813 -2.48264,0 z m 17.67814,-19.219092 c 0.0196,2.396153 -0.54399,4.538144 -1.69077,6.425982 -1.14681,1.887847 -2.99453,2.884828 -5.54314,2.990945 -2.8135,-0.106117 -4.81638,-1.103098 -6.00865,-2.990944 -1.19228,-1.887838 -1.77192,-4.02983 -1.73892,-6.425983 -0.0517,-2.583399 0.49046,-4.778897 1.62656,-6.586498 1.13609,-1.807567 3.17642,-2.751042 6.12101,-2.830429 2.54861,0.106139 4.39633,1.10312 5.54314,2.990945 1.14678,1.88786 1.71037,4.029852 1.69077,6.425982 z"
     id="path3074"
     style="text-align:start;letter-spacing:-0.47px;text-anchor:start;marker:none" /><path
     d="m 419.16606,52.09758 2.69667,0 0,-11.771159 c 0.0374,-2.36581 0.79722,-4.290214 2.27932,-5.773217 1.48209,-1.482969 3.46178,-2.198155 5.93909,-2.145562 l 0,-2.696665 c -2.00379,-0.07132 -3.72131,0.370992 -5.15256,1.32693 -1.43128,0.955981 -2.49603,2.339983 -3.19427,4.152009 l -0.0856,0 0,-5.17931 -2.48265,0 z"
     id="path3076"
     style="text-align:start;letter-spacing:-0.47px;text-anchor:start;marker:none" /><path
     d="m 433.73993,39.513141 c 0.23096,-2.088474 0.94615,-3.904085 2.14556,-5.446837 1.1994,-1.542716 2.90979,-2.352428 5.13116,-2.429138 2.17586,0.07404 3.87019,0.878398 5.083,2.413087 1.21276,1.534726 1.85839,3.355687 1.93689,5.462888 z m 16.99327,2.268624 c 0.13018,-3.232597 -0.57966,-6.077291 -2.12951,-8.534091 -1.54988,-2.456762 -4.0789,-3.749804 -7.58704,-3.879131 -3.48677,0.123084 -6.02649,1.343003 -7.61915,3.65976 -1.59268,2.316794 -2.37742,4.992055 -2.35424,8.02579 -0.0232,3.239751 0.76156,5.973867 2.35424,8.202356 1.59266,2.228495 4.13238,3.389559 7.61915,3.483194 2.78226,-0.01694 4.94387,-0.710728 6.48483,-2.081355 1.54094,-1.370624 2.58964,-3.31643 3.14611,-5.837424 l -2.69666,0 c -0.41736,1.714849 -1.18784,3.079231 -2.31143,4.093152 -1.12362,1.013927 -2.66457,1.532927 -4.62285,1.557004 -2.55043,-0.115926 -4.40528,-1.071886 -5.56455,-2.867882 -1.15929,-1.795988 -1.73001,-3.736443 -1.71217,-5.821373 z"
     id="path3078"
     style="text-align:start;letter-spacing:-0.47px;text-anchor:start;marker:none" /><path
     d="m 456.36442,36.773672 c 0.091,-1.787059 0.66881,-3.092586 1.73357,-3.916586 1.06474,-0.823962 2.45588,-1.230601 4.17341,-1.21992 1.64527,-0.03832 3.00965,0.263088 4.09315,0.90424 1.08346,0.64119 1.64527,1.852191 1.68542,3.633007 -0.005,1.160187 -0.305,1.932446 -0.89889,2.316778 -0.59393,0.38436 -1.45001,0.610865 -2.56826,0.679517 -3.04089,0.210467 -5.74468,0.709849 -8.11139,1.498147 -2.36672,0.788322 -3.61518,2.657437 -3.74537,5.607352 0.0517,2.216905 0.77225,3.850597 2.16161,4.901082 1.38935,1.050486 3.13719,1.571271 5.24352,1.562354 2.08758,-0.008 3.72306,-0.398614 4.90643,-1.171765 1.18334,-0.773151 2.23026,-1.880708 3.14076,-3.322677 l 0.0856,0 c -0.0393,1.153041 0.14623,2.078681 0.55645,2.776923 0.41019,0.698244 1.28054,1.056729 2.61106,1.075456 0.35133,8.92e-4 0.65453,-0.01159 0.90959,-0.03745 0.25502,-0.02586 0.53681,-0.07045 0.84538,-0.133764 l 0,-2.268623 c -0.14805,0.06332 -0.29073,0.107904 -0.42804,0.133763 -0.13735,0.02586 -0.28003,0.03835 -0.42804,0.03745 -1.06299,-0.0071 -1.59091,-0.549318 -1.58376,-1.62656 l 0,-11.728355 c -0.0954,-2.899075 -0.964,-4.827046 -2.6057,-5.783919 -1.64174,-0.95683 -3.4841,-1.397356 -5.5271,-1.32158 -2.58253,-0.01514 -4.6728,0.571637 -6.27082,1.760324 -1.59802,1.188728 -2.48978,3.070328 -2.67526,5.644805 z m 11.68555,6.763065 c -0.0615,2.180346 -0.82668,3.876461 -2.29538,5.088351 -1.46873,1.211896 -3.27186,1.827207 -5.40938,1.845932 -1.32872,-0.01338 -2.47017,-0.403963 -3.42434,-1.171766 -0.95418,-0.767797 -1.45356,-1.83255 -1.49815,-3.194264 0.042,-1.395357 0.59054,-2.409446 1.64559,-3.04227 1.05503,-0.632807 2.36453,-1.073003 3.92847,-1.32059 1.56393,-0.247566 3.13025,-0.49118 4.69895,-0.730841 0.39147,-0.05706 0.81773,-0.156938 1.27878,-0.29963 0.46102,-0.142669 0.79097,-0.370958 0.98985,-0.684867 l 0.0856,0 z"
     id="path3080"
     style="text-align:start;letter-spacing:-0.47px;text-anchor:start;marker:none" /><path
     d="m 495.12609,21.535372 -2.69666,0 0,12.670047 -0.0856,0 c -0.60285,-1.587304 -1.61231,-2.789388 -3.0284,-3.606256 -1.41612,-0.816825 -2.96064,-1.227031 -4.63356,-1.23062 -3.35389,0.09366 -5.84902,1.25472 -7.48538,3.483193 -1.63638,2.228511 -2.45144,4.962627 -2.44519,8.202357 -0.006,3.239751 0.80881,5.973867 2.44519,8.202356 1.63636,2.228495 4.13149,3.389559 7.48538,3.483194 1.66044,-0.01962 3.22992,-0.461929 4.70847,-1.32693 1.47851,-0.865001 2.53434,-2.034982 3.16751,-3.509946 l 0.0856,0 0,4.194813 2.48264,0 z m -17.67814,19.518721 c -0.0196,-2.396131 0.54397,-4.538123 1.69077,-6.425983 1.14679,-1.887824 2.9945,-2.884805 5.54314,-2.990944 2.81347,0.106139 4.81635,1.10312 6.00864,2.990945 1.19226,1.88786 1.7719,4.029852 1.73893,6.425982 0.033,2.396153 -0.54667,4.538144 -1.73893,6.425982 -1.19229,1.887847 -3.19517,2.884828 -6.00864,2.990945 -2.54864,-0.106117 -4.39635,-1.103098 -5.54314,-2.990944 -1.1468,-1.887838 -1.71039,-4.02983 -1.69077,-6.425983 z"
     id="path3082"
     style="text-align:start;letter-spacing:-0.47px;text-anchor:start;marker:none" /><path
     d="m 499.8451,25.858598 2.69666,0 0,-4.323226 -2.69666,0 z m 0,26.238982 2.69666,0 0,-22.086974 -2.69666,0 z"
     id="path3084"
     style="text-align:start;letter-spacing:-0.47px;text-anchor:start;marker:none" /><path
     d="m 507.23178,52.09758 2.69666,0 0,-12.884068 c 0.0749,-2.207078 0.70627,-4.010204 1.89409,-5.409383 1.18781,-1.399143 2.86787,-2.121463 5.0402,-2.166963 2.14376,0.04283 3.62407,0.684887 4.44093,1.92619 0.81683,1.241339 1.20564,2.825094 1.16642,4.751267 l 0,13.782957 2.69666,0 0,-14.210999 c 0.0508,-2.658304 -0.52169,-4.73609 -1.71752,-6.233364 -1.19586,-1.497233 -3.32001,-2.258791 -6.37247,-2.284674 -1.59715,0.01964 -3.03644,0.429849 -4.31788,1.230622 -1.28146,0.800816 -2.1964,1.874487 -2.74482,3.221016 l -0.0856,0 0,-3.809575 -2.69666,0 z"
     id="path3086"
     style="text-align:start;letter-spacing:-0.47px;text-anchor:start;marker:none" /><path
     d="m 548.45806,30.010606 -2.69666,0 0,3.809575 -0.0856,0 c -0.55737,-1.252896 -1.45447,-2.299815 -2.69132,-3.14076 -1.23688,-0.840902 -2.67973,-1.277861 -4.32857,-1.310878 -3.20587,0.08385 -5.66533,1.178921 -7.37838,3.285224 -1.71306,2.106342 -2.57806,4.720963 -2.595,7.843871 -0.0259,3.244212 0.75353,5.926606 2.33818,8.047192 1.58464,2.120593 4.1297,3.219234 7.6352,3.295925 1.61941,-0.01783 3.03551,-0.431609 4.24832,-1.241322 1.21277,-0.809711 2.13662,-1.908352 2.77157,-3.295925 l 0.0856,0 0,2.996295 c 0.0169,2.726093 -0.54132,4.796744 -1.67472,6.211961 -1.13343,1.415208 -2.94369,2.126827 -5.43078,2.13486 -1.5267,0.01961 -2.90356,-0.308552 -4.13061,-0.984496 -1.22706,-0.675956 -2.00467,-1.8174 -2.33283,-3.424337 l -2.69666,0 c 0.25593,2.319448 1.27431,4.015563 3.05515,5.08835 1.78082,1.072772 3.8158,1.602474 6.10495,1.589107 3.53579,-0.02765 6.06302,-0.967561 7.58169,-2.819727 1.51864,-1.852179 2.2588,-4.450749 2.22047,-7.795718 z m -9.80216,19.561525 c -2.49425,-0.08739 -4.33304,-0.993411 -5.5164,-2.718068 -1.18336,-1.724646 -1.77013,-3.743576 -1.76032,-6.056795 -0.0178,-2.38543 0.55288,-4.484618 1.71217,-6.29757 1.15927,-1.812918 3.01412,-2.767094 5.56455,-2.862532 2.54327,0.11149 4.36958,1.097769 5.47894,2.958842 1.10932,1.861107 1.65151,3.928192 1.62656,6.20126 -0.004,2.31322 -0.60552,4.332149 -1.80313,6.056795 -1.19764,1.724657 -2.9651,2.630678 -5.30237,2.718068 z"
     id="path3088"
     style="text-align:start;letter-spacing:-0.47px;text-anchor:start;marker:none" /></g>
<g
   id="text3822"
   style="font-size:40.22391129px;font-style:normal;font-variant:normal;font-weight:300;font-stretch:normal;text-align:center;line-height:125%;writing-mode:lr-tb;text-anchor:middle;color:#000000;fill:#e52b1f;fill-opacity:0.94117647;fill-rule:nonzero;stroke:none;stroke-width:2;marker:none;visibility:visible;display:inline;overflow:visible;enable-background:accumulate;font-family:HelveticaNeueLT Pro 45 Lt;-inkscape-font-specification:HelveticaNeueLT Pro 45 Lt Light"><path
     d="m 558.70448,13.075766 -2.13184,0 0,4.545244 -4.26368,-1.608936 -0.72402,1.930723 4.26368,1.528489 -2.61452,3.660328 1.81005,1.246926 2.61452,-3.861446 2.77541,3.861446 1.64916,-1.246926 -2.65474,-3.660328 4.38435,-1.528489 -0.80447,-1.930723 -4.3039,1.608936 z"
     id="path3091"
     style="marker:none;font-family:HelveticaNeueLT Pro 55 Roman;-inkscape-font-specification:HelveticaNeueLT Pro 55 Roman" /></g>
</svg>